<svg id="Layer_1" enable-background="new 0 0 512 512" height="512" viewBox="0 0 512 512" width="512" xmlns="http://www.w3.org/2000/svg"><g><path d="m105 151c-57.897 0-105 47.103-105 105 0 30.364 12.96 57.754 33.634 76.943 10.732-18.652 28.275-32.275 48.534-38.188-13.255-7.839-22.168-22.272-22.168-38.755 0-24.813 20.187-45 45-45s45 20.187 45 45c0 16.483-8.913 30.916-22.168 38.755 20.259 5.913 37.802 19.536 48.534 38.188 20.674-19.189 33.634-46.579 33.634-76.943 0-57.897-47.103-105-105-105z"/><path d="m105 321.479c-19.577 0-37.624 11.16-46.578 28.606 14.044 6.98 29.859 10.915 46.578 10.915s32.533-3.934 46.578-10.915c-8.954-17.447-27.002-28.606-46.578-28.606z"/><circle cx="105" cy="256" r="15"/><path d="m335.634 181.943c10.732-18.652 28.275-32.275 48.534-38.188-13.255-7.839-22.168-22.272-22.168-38.755 0-24.813 20.187-45 45-45s45 20.187 45 45c0 16.483-8.913 30.916-22.167 38.755 20.259 5.913 37.802 19.536 48.534 38.188 20.673-19.189 33.633-46.578 33.633-76.943 0-57.897-47.103-105-105-105s-105 47.103-105 105c0 30.365 12.96 57.754 33.634 76.943z"/><path d="m360.422 199.084c14.044 6.982 29.859 10.916 46.578 10.916s32.533-3.934 46.578-10.915c-8.953-17.447-27.001-28.606-46.578-28.606s-37.625 11.16-46.578 28.605z"/><circle cx="407" cy="105" r="15"/><path d="m407 302c-57.897 0-105 47.103-105 105 0 30.364 12.96 57.754 33.634 76.943 10.732-18.652 28.275-32.275 48.534-38.188-13.255-7.839-22.168-22.272-22.168-38.755 0-24.813 20.187-45 45-45s45 20.187 45 45c0 16.483-8.913 30.916-22.167 38.755 20.259 5.913 37.802 19.536 48.534 38.188 20.673-19.189 33.633-46.579 33.633-76.943 0-57.898-47.103-105-105-105z"/><path d="m407 472.478c-19.576 0-37.624 11.16-46.578 28.606 14.044 6.981 29.859 10.916 46.578 10.916s32.533-3.934 46.578-10.915c-8.954-17.447-27.002-28.607-46.578-28.607z"/><circle cx="407" cy="407" r="15"/><path d="m213.64 175.956c5.926 8.022 10.984 16.722 15.039 25.958l58.905-34.008c-4.697-8.881-8.433-18.343-11.066-28.251z"/><path d="m213.64 336.044 62.877 36.302c2.634-9.908 6.369-19.371 11.066-28.251l-58.905-34.009c-4.054 9.237-9.112 17.936-15.038 25.958z"/></g></svg>