<svg width="512" height="512" viewBox="0 0 512 512" fill="none" xmlns="http://www.w3.org/2000/svg">
<g clip-path="url(#clip0)">
<path d="M426.667 256C403.2 256 384 236.8 384 213.333C384 189.867 403.2 170.667 426.667 170.667C450.133 170.667 469.333 189.867 469.333 213.333C469.333 236.8 450.133 256 426.667 256ZM426.667 192C413.867 192 405.333 200.533 405.333 213.333C405.333 226.133 413.867 234.667 426.667 234.667C439.467 234.667 448 226.133 448 213.333C448 200.533 439.467 192 426.667 192Z" fill="#8A8F98"/>
<path d="M501.333 362.667C494.933 362.667 490.667 358.4 490.667 352V330.667C490.667 313.6 475.733 298.667 458.667 298.667H394.667C388.267 298.667 384 294.4 384 288C384 281.6 388.267 277.333 394.667 277.333H458.667C488.533 277.333 512 300.8 512 330.667V352C512 358.4 507.733 362.667 501.333 362.667Z" fill="#8A8F98"/>
<path d="M85.3333 256C61.8667 256 42.6667 236.8 42.6667 213.333C42.6667 189.867 61.8667 170.667 85.3333 170.667C108.8 170.667 128 189.867 128 213.333C128 236.8 108.8 256 85.3333 256ZM85.3333 192C72.5333 192 64 200.533 64 213.333C64 226.133 72.5333 234.667 85.3333 234.667C98.1333 234.667 106.667 226.133 106.667 213.333C106.667 200.533 98.1333 192 85.3333 192Z" fill="#8A8F98"/>
<path d="M10.6667 362.667C4.26667 362.667 0 358.4 0 352V330.667C0 300.8 23.4667 277.333 53.3333 277.333H117.333C123.733 277.333 128 281.6 128 288C128 294.4 123.733 298.667 117.333 298.667H53.3333C36.2667 298.667 21.3333 313.6 21.3333 330.667V352C21.3333 358.4 17.0667 362.667 10.6667 362.667Z" fill="#8A8F98"/>
<path d="M256 266.667C219.733 266.667 192 238.933 192 202.667C192 166.4 219.733 138.667 256 138.667C292.267 138.667 320 166.4 320 202.667C320 238.933 292.267 266.667 256 266.667ZM256 160C232.533 160 213.333 179.2 213.333 202.667C213.333 226.133 232.533 245.333 256 245.333C279.467 245.333 298.667 226.133 298.667 202.667C298.667 179.2 279.467 160 256 160Z" fill="#8A8F98"/>
<path d="M362.667 405.333C356.267 405.333 352 401.067 352 394.667V352C352 334.933 337.067 320 320 320H192C174.933 320 160 334.933 160 352V394.667C160 401.067 155.733 405.333 149.333 405.333C142.933 405.333 138.667 401.067 138.667 394.667V352C138.667 322.133 162.133 298.667 192 298.667H320C349.867 298.667 373.333 322.133 373.333 352V394.667C373.333 401.067 369.067 405.333 362.667 405.333Z" fill="#8A8F98"/>
</g>
<defs>
<clipPath id="clip0">
<rect width="512" height="512" fill="white"/>
</clipPath>
</defs>
</svg>
