<svg width="400" height="400" viewBox="0 0 400 400" fill="none" xmlns="http://www.w3.org/2000/svg">
<path fill-rule="evenodd" clip-rule="evenodd" d="M200 400C310.457 400 400 310.457 400 200C400 193.785 399.717 187.637 399.162 181.566L372.94 203.789L370.832 205.575L368.879 203.621L349.145 183.887C349.71 189.181 350 194.557 350 200C350 282.843 282.843 350 200 350C118.253 350 51.7787 284.607 50.0351 203.278L26.8321 180.075L0.019165 202.798C1.51583 311.965 90.4771 400 200 400ZM347.757 174.015C335.452 103.557 273.98 50 200 50C118.883 50 52.8044 114.389 50.0869 194.844L29.1213 173.879L27.1679 171.925L25.0604 173.711L0.0638885 194.895C2.77227 86.7971 91.2498 0 200 0C301.773 0 385.792 76.0174 398.373 174.37L371.168 197.425L347.757 174.015ZM18 160C18 162.209 16.2091 164 14 164C11.7909 164 10 162.209 10 160C10 157.791 11.7909 156 14 156C16.2091 156 18 157.791 18 160ZM386 218C388.209 218 390 216.209 390 214C390 211.791 388.209 210 386 210C383.791 210 382 211.791 382 214C382 216.209 383.791 218 386 218Z" fill="#D26A5E"/>
</svg>
