<svg width="520" height="512" viewBox="0 0 520 512" fill="none" xmlns="http://www.w3.org/2000/svg">
<g filter="url(#filter0_d)">
<g clip-path="url(#clip0)">
<path d="M292 490.667H228C216.224 490.667 206.667 481.088 206.667 469.333V362.667H153.333C149.024 362.667 145.12 360.064 143.477 356.075C141.835 352.085 142.752 347.499 145.781 344.448L252.448 237.781C256.608 233.621 263.371 233.621 267.531 237.781L374.197 344.448C377.248 347.499 378.165 352.085 376.501 356.075C374.837 360.064 370.976 362.667 366.667 362.667H313.333V469.333C313.333 481.088 303.776 490.667 292 490.667V490.667ZM179.083 341.333H217.333C223.221 341.333 228 346.112 228 352V469.333H292V352C292 346.112 296.779 341.333 302.667 341.333H340.917L260 260.416L179.083 341.333Z" fill="#8A8F98"/>
<path d="M100.021 362.027C99.616 362.027 99.232 362.005 98.8053 361.963C44.768 355.968 4 310.4 4 256C4 199.637 47.9253 153.365 103.328 149.589C118.091 75.8613 183.904 21.3333 260 21.3333C319.755 21.3333 374.795 54.9973 401.931 107.605C466.4 114.368 516 169.003 516 234.667C516 291.84 477.685 342.4 422.859 357.589C417.141 359.147 411.296 355.819 409.739 350.144C408.16 344.469 411.488 338.581 417.163 337.024C462.795 324.395 494.667 282.283 494.667 234.667C494.667 178.197 450.656 131.52 394.464 128.405C390.517 128.192 387.04 125.824 385.376 122.261C362.805 73.92 313.611 42.6667 260 42.6667C191.413 42.6667 132.491 93.76 122.933 161.493C122.187 166.741 117.685 170.667 112.373 170.667C63.6053 170.667 25.3333 208.939 25.3333 256C25.3333 299.52 57.9307 335.957 101.195 340.757C107.04 341.419 111.264 346.688 110.603 352.533C110.005 357.995 105.376 362.027 100.021 362.027V362.027Z" fill="#8A8F98"/>
</g>
</g>
<defs>
<filter id="filter0_d" x="0" y="0" width="520" height="520" filterUnits="userSpaceOnUse" color-interpolation-filters="sRGB">
<feFlood flood-opacity="0" result="BackgroundImageFix"/>
<feColorMatrix in="SourceAlpha" type="matrix" values="0 0 0 0 0 0 0 0 0 0 0 0 0 0 0 0 0 0 127 0"/>
<feOffset dy="4"/>
<feGaussianBlur stdDeviation="2"/>
<feColorMatrix type="matrix" values="0 0 0 0 0 0 0 0 0 0 0 0 0 0 0 0 0 0 0.25 0"/>
<feBlend mode="normal" in2="BackgroundImageFix" result="effect1_dropShadow"/>
<feBlend mode="normal" in="SourceGraphic" in2="effect1_dropShadow" result="shape"/>
</filter>
<clipPath id="clip0">
<rect x="4" width="512" height="512" fill="white"/>
</clipPath>
</defs>
</svg>
